<svg width="430" height="163" viewBox="0 0 430 163" fill="none" xmlns="http://www.w3.org/2000/svg">
<rect y="100.855" width="429.365" height="62" transform="rotate(-0.381016 0 100.855)" fill="#333333"/>
<path d="M47.6769 121.739L47.7886 138.538L45.2207 138.555L45.1423 126.772L40.9008 138.584L39.0768 138.596L34.6785 126.841L34.7569 138.625L32.189 138.642L32.0772 121.842L34.9812 121.823L39.968 135.47L44.773 121.758L47.6769 121.739ZM53.8551 138.738C53.0711 138.743 52.3661 138.588 51.74 138.272C51.1299 137.956 50.647 137.519 50.2912 136.962C49.9514 136.388 49.7791 135.741 49.7743 135.021C49.7662 133.805 50.2241 132.874 51.1478 132.228C52.0714 131.566 53.3892 131.229 55.1011 131.217L57.3571 131.202L57.3531 130.602C57.3478 129.802 57.1277 129.188 56.6928 128.759C56.258 128.33 55.6245 128.118 54.7926 128.123C54.0726 128.128 53.4016 128.277 52.7795 128.569C52.1573 128.845 51.648 129.248 51.2515 129.779L50.1141 128.371C50.6856 127.695 51.3782 127.178 52.1918 126.821C53.0214 126.447 53.9161 126.257 54.8761 126.251C56.4121 126.241 57.6066 126.609 58.4595 127.355C59.3124 128.085 59.7434 129.13 59.7524 130.49L59.7894 136.058C59.7942 136.778 59.8956 137.578 60.0934 138.456L58.0054 138.47C57.8429 138.087 57.7273 137.552 57.6588 136.865L57.6108 136.865C56.707 138.103 55.4551 138.727 53.8551 138.738ZM54.2988 136.887C55.1628 136.881 55.8893 136.644 56.4782 136.176C57.083 135.692 57.3831 135.114 57.3786 134.442L57.3681 132.858L55.0162 132.874C54.0722 132.88 53.3454 133.069 52.8359 133.441C52.3422 133.796 52.0977 134.317 52.1023 135.005C52.1062 135.597 52.3013 136.06 52.6875 136.394C53.0897 136.727 53.6268 136.891 54.2988 136.887ZM69.8745 138.391L66.0195 132.537L64.3744 134.18L64.4026 138.428L62.0027 138.444L61.8842 120.636L64.2842 120.62L64.3554 131.324L69.2187 126.395L72.1226 126.376L67.6167 130.918L72.5624 138.373L69.8745 138.391ZM83.2665 133.214L74.7227 133.271C74.8579 134.358 75.2074 135.18 75.7711 135.736C76.3508 136.292 77.1366 136.567 78.1286 136.56C79.5366 136.551 80.6689 135.991 81.5255 134.882L82.854 136.145C82.395 136.9 81.7349 137.496 80.8738 137.934C80.0126 138.356 79.062 138.57 78.022 138.577C76.2301 138.589 74.8265 138.054 73.8113 136.973C72.812 135.876 72.3058 134.351 72.2928 132.399C72.2798 130.447 72.7737 128.916 73.7743 127.805C74.7748 126.678 76.1551 126.109 77.915 126.098C79.579 126.087 80.8786 126.63 81.814 127.728C82.7652 128.809 83.2473 130.334 83.2604 132.302L83.2665 133.214ZM80.9981 131.357C80.9912 130.317 80.7058 129.503 80.1418 128.915C79.5779 128.327 78.808 128.036 77.832 128.042C76.92 128.048 76.194 128.357 75.6541 128.969C75.1141 129.58 74.7919 130.446 74.6873 131.567L80.9992 131.525L80.9981 131.357ZM94.4521 138.468C93.3321 138.475 92.4499 138.145 91.8055 137.477C91.1769 136.794 90.8586 135.852 90.8507 134.652L90.8069 128.076L88.647 128.09L88.6348 126.266L90.7948 126.252L90.7737 123.084L93.0492 122.397L93.1452 122.396L93.1707 126.236L96.6027 126.213L96.6148 128.037L93.1829 128.06L93.2247 134.348C93.2299 135.132 93.3857 135.707 93.6922 136.073C94.0146 136.439 94.4958 136.62 95.1358 136.615C95.7758 136.611 96.3431 136.511 96.8379 136.316L96.9932 138.019C96.4031 138.311 95.5561 138.461 94.4521 138.468ZM108.879 133.044L100.336 133.101C100.471 134.188 100.82 135.009 101.384 135.566C101.964 136.122 102.75 136.397 103.741 136.39C105.149 136.381 106.282 135.821 107.138 134.711L108.467 135.975C108.008 136.73 107.348 137.326 106.487 137.764C105.625 138.186 104.675 138.4 103.635 138.407C101.843 138.419 100.439 137.884 99.4241 136.803C98.4248 135.705 97.9187 134.181 97.9057 132.229C97.8927 130.277 98.3865 128.746 99.3872 127.635C100.388 126.508 101.768 125.939 103.528 125.927C105.192 125.916 106.492 126.46 107.427 127.557C108.378 128.639 108.86 130.164 108.873 132.132L108.879 133.044ZM106.611 131.187C106.604 130.147 106.319 129.333 105.755 128.745C105.191 128.156 104.421 127.865 103.445 127.872C102.533 127.878 101.807 128.187 101.267 128.798C100.727 129.41 100.405 130.276 100.3 131.397L106.612 131.355L106.611 131.187ZM110.47 129.049C110.461 127.689 110.43 126.713 110.378 126.122L112.61 126.107C112.678 126.746 112.715 127.45 112.72 128.218L112.722 128.458L112.794 128.458C113.108 127.64 113.608 127.004 114.293 126.552C114.994 126.083 115.816 125.846 116.76 125.839C117.016 125.838 117.249 125.86 117.457 125.907L117.47 127.827C117.357 127.795 117.109 127.781 116.725 127.784C116.021 127.788 115.367 128.001 114.762 128.421C114.172 128.825 113.704 129.38 113.357 130.086C113.025 130.776 112.862 131.537 112.868 132.369L112.906 138.105L110.53 138.121L110.47 129.049ZM118.539 128.996C118.529 127.636 118.499 126.66 118.447 126.068L120.679 126.053C120.747 126.693 120.784 127.397 120.789 128.165L120.791 128.405L120.863 128.404C121.177 127.586 121.677 126.951 122.362 126.498C123.063 126.029 123.885 125.792 124.829 125.786C125.085 125.784 125.317 125.806 125.526 125.853L125.539 127.773C125.426 127.742 125.178 127.727 124.794 127.73C124.09 127.735 123.436 127.947 122.83 128.367C122.241 128.771 121.773 129.326 121.425 130.032C121.094 130.723 120.931 131.484 120.937 132.316L120.975 138.052L118.599 138.067L118.539 128.996ZM128.112 124.156C127.616 124.159 127.223 124.026 126.933 123.756C126.643 123.485 126.497 123.118 126.494 122.654C126.491 122.19 126.632 121.822 126.918 121.548C127.204 121.274 127.596 121.135 128.092 121.132C128.587 121.129 128.98 121.262 129.27 121.532C129.576 121.802 129.73 122.169 129.734 122.633C129.737 123.097 129.587 123.466 129.285 123.74C128.999 124.014 128.608 124.152 128.112 124.156ZM126.948 126.012L129.324 125.996L129.404 137.995L127.028 138.011L126.948 126.012ZM137.851 138.179C137.115 138.184 136.402 138.005 135.711 137.642C135.021 137.262 134.497 136.77 134.141 136.164L134.093 136.164C134.112 136.548 134.108 137.148 134.081 137.964L131.873 137.979C131.918 137.467 131.935 136.443 131.925 134.907L131.827 120.171L134.203 120.155L134.251 127.451L134.299 127.451C135.044 126.294 136.232 125.71 137.864 125.699C139.4 125.689 140.611 126.217 141.498 127.283C142.402 128.349 142.859 129.818 142.872 131.69C142.885 133.69 142.44 135.269 141.535 136.427C140.647 137.585 139.419 138.169 137.851 138.179ZM137.454 136.31C138.414 136.303 139.164 135.899 139.702 135.095C140.241 134.291 140.506 133.178 140.496 131.754C140.487 130.394 140.208 129.347 139.659 128.615C139.126 127.867 138.372 127.496 137.396 127.502C136.468 127.508 135.71 127.825 135.122 128.453C134.55 129.081 134.268 129.891 134.274 130.883L134.289 133.163C134.296 134.139 134.581 134.913 135.145 135.485C135.725 136.041 136.494 136.316 137.454 136.31ZM147.28 138.117C146.368 138.123 145.678 137.871 145.211 137.362C144.743 136.837 144.506 136.063 144.499 135.039L144.4 120.087L146.776 120.072L146.875 135.023C146.878 135.519 146.969 135.871 147.146 136.077C147.339 136.284 147.644 136.386 148.06 136.383C148.396 136.381 148.811 136.274 149.306 136.063L149.675 137.429C149.054 137.881 148.256 138.11 147.28 138.117ZM160.316 132.702L151.772 132.759C151.907 133.846 152.257 134.667 152.821 135.224C153.4 135.78 154.186 136.055 155.178 136.048C156.586 136.039 157.718 135.479 158.575 134.369L159.904 135.633C159.445 136.388 158.784 136.984 157.923 137.422C157.062 137.844 156.112 138.058 155.072 138.065C153.28 138.077 151.876 137.542 150.861 136.461C149.862 135.363 149.355 133.839 149.342 131.887C149.329 129.935 149.823 128.403 150.824 127.293C151.824 126.166 153.205 125.597 154.965 125.585C156.629 125.574 157.928 126.118 158.864 127.215C159.815 128.297 160.297 129.822 160.31 131.79L160.316 132.702ZM158.048 130.845C158.041 129.805 157.755 128.991 157.191 128.402C156.627 127.814 155.857 127.523 154.882 127.53C153.97 127.536 153.244 127.845 152.704 128.456C152.164 129.068 151.841 129.934 151.737 131.055L158.049 131.013L158.048 130.845ZM170.398 137.963C169.454 137.969 168.604 137.783 167.85 137.404C167.095 137.025 166.564 136.516 166.256 135.878L167.761 134.836C168.036 135.25 168.406 135.576 168.871 135.813C169.337 136.05 169.842 136.167 170.386 136.163C171.01 136.159 171.521 135.979 171.918 135.625C172.332 135.27 172.537 134.821 172.533 134.277C172.53 133.845 172.368 133.494 172.046 133.224C171.724 132.938 171.13 132.638 170.264 132.324C168.869 131.805 167.881 131.275 167.302 130.735C166.738 130.179 166.453 129.493 166.448 128.677C166.441 127.717 166.812 126.946 167.56 126.365C168.325 125.784 169.339 125.49 170.603 125.481C171.419 125.476 172.164 125.639 172.838 125.97C173.512 126.302 174.043 126.77 174.431 127.376L173.022 128.441C172.748 128.059 172.402 127.773 171.985 127.584C171.583 127.379 171.135 127.278 170.639 127.281C170.095 127.285 169.647 127.408 169.297 127.65C168.963 127.892 168.797 128.205 168.799 128.589C168.802 128.989 168.98 129.324 169.334 129.594C169.688 129.847 170.378 130.171 171.404 130.564C172.688 131.051 173.587 131.565 174.103 132.106C174.634 132.631 174.903 133.317 174.909 134.165C174.916 135.301 174.506 136.215 173.679 136.909C172.851 137.603 171.758 137.954 170.398 137.963ZM180.953 137.893C179.833 137.9 178.951 137.57 178.307 136.902C177.678 136.218 177.36 135.276 177.352 134.077L177.308 127.501L175.148 127.515L175.136 125.691L177.296 125.677L177.275 122.509L179.55 121.822L179.646 121.821L179.672 125.661L183.104 125.638L183.116 127.462L179.684 127.485L179.726 133.773C179.731 134.557 179.887 135.132 180.193 135.498C180.516 135.864 180.997 136.044 181.637 136.04C182.277 136.036 182.844 135.936 183.339 135.741L183.494 137.444C182.904 137.736 182.057 137.885 180.953 137.893ZM189.65 137.835C187.81 137.847 186.358 137.305 185.295 136.208C184.231 135.095 183.693 133.57 183.68 131.634C183.667 129.698 184.185 128.175 185.234 127.064C186.282 125.937 187.727 125.367 189.567 125.355C191.407 125.343 192.858 125.893 193.922 127.006C195.001 128.103 195.547 129.619 195.56 131.555C195.573 133.491 195.047 135.023 193.982 136.15C192.934 137.261 191.49 137.823 189.65 137.835ZM189.638 136.035C190.742 136.028 191.611 135.63 192.246 134.841C192.88 134.037 193.193 132.947 193.184 131.571C193.175 130.195 192.848 129.117 192.202 128.338C191.557 127.542 190.683 127.148 189.579 127.155C188.459 127.163 187.589 127.568 186.971 128.372C186.352 129.161 186.047 130.243 186.056 131.619C186.065 132.995 186.385 134.08 187.014 134.876C187.643 135.656 188.518 136.042 189.638 136.035ZM197.158 128.473C197.149 127.113 197.119 126.137 197.067 125.545L199.299 125.53C199.367 126.17 199.404 126.874 199.409 127.642L199.41 127.882L199.482 127.881C199.797 127.063 200.297 126.428 200.982 125.975C201.683 125.507 202.505 125.269 203.449 125.263C203.705 125.261 203.937 125.284 204.146 125.33L204.158 127.25C204.046 127.219 203.798 127.205 203.414 127.207C202.71 127.212 202.055 127.424 201.45 127.844C200.861 128.248 200.393 128.803 200.045 129.51C199.714 130.2 199.551 130.961 199.556 131.793L199.595 137.529L197.219 137.544L197.158 128.473ZM206.731 123.633C206.235 123.636 205.843 123.503 205.553 123.233C205.263 122.963 205.116 122.596 205.113 122.132C205.11 121.668 205.252 121.299 205.538 121.025C205.824 120.751 206.215 120.612 206.711 120.609C207.207 120.606 207.6 120.739 207.89 121.009C208.196 121.279 208.35 121.646 208.353 122.11C208.356 122.574 208.207 122.943 207.905 123.217C207.619 123.491 207.227 123.63 206.731 123.633ZM205.568 125.489L207.944 125.473L208.023 137.473L205.648 137.488L205.568 125.489ZM220.923 132.299L212.379 132.356C212.515 133.443 212.864 134.264 213.428 134.821C214.007 135.377 214.793 135.652 215.785 135.645C217.193 135.636 218.326 135.076 219.182 133.966L220.511 135.23C220.052 135.985 219.392 136.581 218.53 137.019C217.669 137.44 216.719 137.655 215.679 137.662C213.887 137.674 212.483 137.139 211.468 136.058C210.469 134.96 209.962 133.436 209.949 131.484C209.936 129.532 210.43 128 211.431 126.89C212.431 125.763 213.812 125.194 215.572 125.182C217.236 125.171 218.535 125.714 219.471 126.812C220.422 127.894 220.904 129.419 220.917 131.387L220.923 132.299ZM218.655 130.442C218.648 129.402 218.362 128.588 217.798 127.999C217.235 127.411 216.465 127.12 215.489 127.127C214.577 127.133 213.851 127.442 213.311 128.053C212.771 128.665 212.449 129.531 212.344 130.652L218.656 130.61L218.655 130.442ZM226.428 137.59C225.484 137.597 224.635 137.41 223.88 137.031C223.126 136.652 222.594 136.144 222.286 135.506L223.791 134.464C224.066 134.878 224.436 135.203 224.902 135.44C225.367 135.677 225.872 135.794 226.416 135.79C227.04 135.786 227.551 135.607 227.948 135.252C228.362 134.897 228.567 134.448 228.564 133.904C228.561 133.472 228.398 133.121 228.077 132.851C227.755 132.565 227.161 132.265 226.295 131.951C224.899 131.432 223.911 130.903 223.332 130.363C222.768 129.806 222.484 129.12 222.478 128.304C222.472 127.344 222.843 126.574 223.591 125.993C224.355 125.412 225.369 125.117 226.633 125.109C227.449 125.103 228.194 125.266 228.868 125.598C229.543 125.929 230.074 126.398 230.462 127.003L229.053 128.069C228.778 127.686 228.432 127.401 228.015 127.211C227.614 127.006 227.165 126.905 226.669 126.908C226.125 126.912 225.678 127.035 225.327 127.277C224.993 127.52 224.827 127.833 224.83 128.217C224.832 128.617 225.011 128.951 225.364 129.221C225.718 129.475 226.408 129.798 227.435 130.191C228.718 130.679 229.618 131.193 230.133 131.733C230.665 132.258 230.933 132.944 230.939 133.792C230.946 134.928 230.536 135.843 229.709 136.536C228.882 137.23 227.788 137.581 226.428 137.59ZM252.004 125.18L249.059 137.2L246.947 137.214L244.149 127.776L241.476 137.25L239.34 137.264L236.236 125.285L238.708 125.268L240.565 133.896L243.052 125.239L245.188 125.225L247.789 133.848L249.532 125.196L252.004 125.18ZM254.599 123.315C254.103 123.318 253.71 123.184 253.42 122.914C253.131 122.644 252.984 122.277 252.981 121.813C252.978 121.349 253.12 120.98 253.406 120.706C253.692 120.433 254.083 120.294 254.579 120.291C255.075 120.287 255.468 120.421 255.758 120.691C256.064 120.961 256.218 121.328 256.221 121.792C256.224 122.256 256.075 122.625 255.772 122.899C255.486 123.173 255.095 123.311 254.599 123.315ZM253.435 125.17L255.811 125.155L255.891 137.154L253.515 137.17L253.435 125.17ZM263.018 137.347C261.898 137.354 261.016 137.024 260.372 136.356C259.743 135.673 259.425 134.731 259.417 133.531L259.373 126.955L257.213 126.969L257.201 125.145L259.361 125.131L259.34 121.963L261.615 121.276L261.711 121.275L261.737 125.115L265.169 125.092L265.181 126.916L261.749 126.939L261.791 133.227C261.796 134.011 261.952 134.586 262.258 134.952C262.581 135.318 263.062 135.499 263.702 135.494C264.342 135.49 264.909 135.39 265.404 135.195L265.559 136.898C264.969 137.19 264.122 137.34 263.018 137.347ZM266.921 119.273L269.297 119.257L269.347 126.793C269.695 126.182 270.22 125.699 270.922 125.342C271.623 124.985 272.398 124.804 273.246 124.799C274.638 124.789 275.729 125.246 276.519 126.169C277.309 127.092 277.71 128.377 277.721 130.025L277.767 137.009L275.392 137.025L275.346 130.113C275.338 128.977 275.108 128.106 274.656 127.501C274.22 126.896 273.586 126.596 272.754 126.602C271.762 126.609 270.949 126.974 270.313 127.698C269.678 128.422 269.364 129.361 269.372 130.513L269.416 137.064L267.04 137.08L266.921 119.273ZM294.53 124.897L290.172 137.262C289.12 140.229 287.418 141.721 285.066 141.736C284.618 141.739 284.105 141.671 283.528 141.531L283.516 139.683C283.853 139.808 284.253 139.87 284.717 139.867C285.501 139.861 286.163 139.577 286.704 139.013C287.244 138.45 287.758 137.518 288.245 136.219L283.706 124.969L286.25 124.952L289.332 133.644L291.962 124.914L294.53 124.897ZM300.679 137.096C298.839 137.109 297.387 136.566 296.324 135.469C295.261 134.356 294.723 132.832 294.71 130.896C294.697 128.96 295.215 127.437 296.263 126.326C297.312 125.199 298.756 124.629 300.596 124.617C302.436 124.605 303.888 125.155 304.951 126.268C306.03 127.365 306.576 128.881 306.589 130.817C306.602 132.753 306.076 134.285 305.012 135.412C303.963 136.523 302.519 137.084 300.679 137.096ZM300.667 135.297C301.771 135.289 302.64 134.891 303.275 134.103C303.91 133.299 304.223 132.209 304.213 130.833C304.204 129.457 303.877 128.379 303.232 127.599C302.587 126.804 301.712 126.409 300.608 126.417C299.488 126.424 298.619 126.83 298 127.634C297.381 128.422 297.076 129.504 297.086 130.88C297.095 132.256 297.414 133.342 298.043 134.138C298.672 134.918 299.547 135.304 300.667 135.297ZM312.306 137.019C310.93 137.028 309.879 136.587 309.153 135.696C308.443 134.789 308.082 133.455 308.07 131.695L308.024 124.807L310.4 124.792L310.446 131.703C310.454 132.855 310.66 133.71 311.063 134.267C311.467 134.825 312.077 135.101 312.893 135.095C313.853 135.089 314.642 134.724 315.262 133.999C315.897 133.275 316.211 132.361 316.203 131.257L316.16 124.753L318.536 124.737L318.598 134.025C318.604 134.889 318.682 135.793 318.832 136.736L316.6 136.751C316.467 136.063 316.391 135.352 316.37 134.616L316.298 134.617C315.983 135.355 315.458 135.942 314.725 136.379C314.008 136.8 313.202 137.013 312.306 137.019ZM320.78 127.651C320.771 126.291 320.74 125.315 320.689 124.723L322.92 124.708C322.989 125.348 323.025 126.052 323.031 126.82L323.032 127.06L323.104 127.059C323.419 126.241 323.918 125.606 324.603 125.153C325.304 124.684 326.127 124.447 327.071 124.441C327.327 124.439 327.559 124.461 327.767 124.508L327.78 126.428C327.668 126.397 327.42 126.382 327.036 126.385C326.332 126.39 325.677 126.602 325.072 127.022C324.483 127.426 324.014 127.981 323.667 128.687C323.336 129.378 323.173 130.139 323.178 130.971L323.216 136.707L320.84 136.722L320.78 127.651ZM334.582 126.311L332.59 126.324L332.579 124.644L334.571 124.631L334.561 123.143C334.553 121.991 334.891 121.085 335.575 120.424C336.258 119.747 337.208 119.405 338.424 119.397C338.936 119.394 339.417 119.47 339.866 119.627C340.331 119.784 340.708 120.006 340.998 120.292L340.144 121.738C339.741 121.388 339.244 121.216 338.652 121.22C338.124 121.223 337.702 121.41 337.384 121.78C337.082 122.134 336.934 122.623 336.938 123.247L336.947 124.615L340.355 124.592L340.366 126.272L336.958 126.295L337.027 136.615L334.651 136.631L334.582 126.311ZM341.471 127.513C341.462 126.153 341.432 125.177 341.38 124.586L343.612 124.571C343.68 125.21 343.716 125.914 343.722 126.682L343.723 126.922L343.795 126.922C344.11 126.103 344.61 125.468 345.295 125.016C345.995 124.547 346.818 124.309 347.762 124.303C348.018 124.301 348.25 124.324 348.458 124.37L348.471 126.29C348.359 126.259 348.111 126.245 347.727 126.247C347.023 126.252 346.368 126.464 345.763 126.884C345.174 127.288 344.705 127.843 344.358 128.55C344.027 129.24 343.864 130.001 343.869 130.833L343.907 136.569L341.531 136.585L341.471 127.513ZM351.044 122.673C350.548 122.677 350.155 122.543 349.866 122.273C349.576 122.003 349.429 121.636 349.426 121.172C349.423 120.708 349.565 120.339 349.851 120.065C350.137 119.791 350.528 119.653 351.024 119.649C351.52 119.646 351.913 119.779 352.203 120.049C352.509 120.319 352.663 120.686 352.666 121.15C352.669 121.614 352.52 121.983 352.217 122.257C351.931 122.531 351.54 122.67 351.044 122.673ZM349.881 124.529L352.256 124.513L352.336 136.513L349.96 136.529L349.881 124.529ZM365.236 131.339L356.692 131.396C356.827 132.483 357.177 133.305 357.74 133.861C358.32 134.417 359.106 134.692 360.098 134.685C361.506 134.676 362.638 134.116 363.495 133.007L364.823 134.27C364.364 135.025 363.704 135.621 362.843 136.059C361.982 136.481 361.031 136.695 359.991 136.702C358.199 136.714 356.796 136.179 355.781 135.098C354.781 134.001 354.275 132.476 354.262 130.524C354.249 128.572 354.743 127.041 355.744 125.93C356.744 124.803 358.124 124.234 359.884 124.222C361.548 124.211 362.848 124.755 363.783 125.853C364.735 126.934 365.217 128.459 365.23 130.427L365.236 131.339ZM362.967 129.482C362.961 128.442 362.675 127.628 362.111 127.04C361.547 126.451 360.777 126.161 359.801 126.167C358.889 126.173 358.163 126.482 357.623 127.094C357.084 127.705 356.761 128.571 356.657 129.692L362.969 129.65L362.967 129.482ZM366.659 127.489C366.649 126.002 366.61 124.978 366.543 124.418L368.751 124.404C368.835 124.995 368.879 125.699 368.885 126.515L368.957 126.514C369.272 125.792 369.788 125.221 370.505 124.8C371.238 124.363 372.053 124.142 372.949 124.136C375.765 124.117 377.185 125.931 377.209 129.579L377.254 136.347L374.878 136.363L374.833 129.571C374.825 128.371 374.619 127.485 374.215 126.911C373.812 126.338 373.194 126.054 372.362 126.06C371.386 126.066 370.588 126.423 369.969 127.131C369.35 127.84 369.043 128.738 369.051 129.826L369.094 136.401L366.718 136.417L366.659 127.489ZM383.753 136.544C382.185 136.554 380.949 135.987 380.045 134.841C379.142 133.695 378.683 132.122 378.67 130.122C378.662 128.906 378.863 127.848 379.273 126.95C379.683 126.035 380.27 125.327 381.035 124.826C381.799 124.325 382.694 124.071 383.718 124.064C385.158 124.054 386.314 124.623 387.185 125.769L387.233 125.769L387.185 118.473L389.561 118.457L389.659 133.193C389.669 134.729 389.7 135.752 389.751 136.264L387.543 136.279C387.509 135.927 387.489 135.327 387.483 134.479L387.435 134.479C387.071 135.09 386.554 135.589 385.885 135.978C385.215 136.35 384.505 136.539 383.753 136.544ZM384.124 134.67C385.084 134.663 385.85 134.378 386.423 133.814C386.995 133.234 387.278 132.456 387.271 131.481L387.256 129.201C387.249 128.209 386.948 127.403 386.352 126.783C385.772 126.162 385.01 125.855 384.066 125.862C383.106 125.868 382.356 126.249 381.817 127.005C381.294 127.744 381.037 128.794 381.046 130.154C381.056 131.578 381.327 132.688 381.86 133.485C382.41 134.281 383.164 134.676 384.124 134.67ZM395.246 136.468C394.302 136.474 393.452 136.288 392.698 135.909C391.943 135.53 391.412 135.021 391.104 134.383L392.609 133.341C392.883 133.755 393.254 134.081 393.719 134.318C394.185 134.555 394.69 134.671 395.234 134.668C395.858 134.663 396.368 134.484 396.766 134.129C397.18 133.775 397.385 133.325 397.381 132.781C397.378 132.349 397.216 131.998 396.894 131.729C396.572 131.443 395.978 131.143 395.112 130.828C393.717 130.31 392.729 129.78 392.149 129.24C391.586 128.684 391.301 127.998 391.296 127.182C391.289 126.222 391.66 125.451 392.408 124.87C393.172 124.289 394.187 123.994 395.451 123.986C396.267 123.981 397.012 124.144 397.686 124.475C398.36 124.807 398.891 125.275 399.279 125.881L397.87 126.946C397.596 126.564 397.25 126.278 396.833 126.089C396.431 125.883 395.982 125.782 395.486 125.786C394.943 125.789 394.495 125.912 394.145 126.155C393.811 126.397 393.645 126.71 393.647 127.094C393.65 127.494 393.828 127.829 394.182 128.098C394.536 128.352 395.226 128.676 396.252 129.069C397.536 129.556 398.435 130.07 398.951 130.611C399.482 131.135 399.751 131.822 399.756 132.67C399.764 133.805 399.354 134.72 398.527 135.414C397.699 136.107 396.605 136.459 395.246 136.468Z" fill="white"/>
<path d="M31.9372 67.6911C28.2972 67.6911 25.0028 66.9539 22.0539 65.4795C19.1511 64.0051 16.7782 61.8856 14.9352 59.121L20.6717 53.5919C22.1922 55.3888 24.0352 56.8633 26.2008 58.0152C28.3663 59.1671 30.3937 59.743 32.2828 59.743C34.4023 59.743 36.1071 59.2592 37.3972 58.2916C38.6874 57.324 39.3324 56.0569 39.3324 54.4904C39.3324 53.3385 39.1251 52.3939 38.7104 51.6567C38.2957 50.9195 37.5124 50.1823 36.3605 49.445C35.2086 48.6617 33.3195 47.625 30.6932 46.3349C27.2375 44.6301 24.519 43.0405 22.5377 41.566C20.5565 40.0916 19.082 38.502 18.1144 36.7972C17.1929 35.0463 16.7322 33.0189 16.7322 30.7151C16.7322 28.181 17.4003 25.9463 18.7365 24.0111C20.0727 22.0759 21.9618 20.5784 24.4038 19.5187C26.8458 18.4589 29.6565 17.9291 32.8357 17.9291C36.3375 17.9291 39.4246 18.5972 42.097 19.9334C44.8155 21.2696 46.7968 23.1126 48.0408 25.4625L41.7514 30.1622C39.4476 27.3055 36.614 25.8772 33.2504 25.8772C31.1309 25.8772 29.4952 26.2918 28.3433 27.1212C27.1914 27.9506 26.6155 29.1255 26.6155 30.646C26.6155 31.5676 26.8919 32.3969 27.4448 33.1341C28.0438 33.8714 29.1036 34.6777 30.6241 35.5531C32.1446 36.4286 34.4253 37.5805 37.4664 39.0088C40.4152 40.3911 42.719 41.7734 44.3778 43.1557C46.0826 44.5379 47.3036 46.0815 48.0408 47.7863C48.778 49.4911 49.1466 51.5185 49.1466 53.8683C49.1466 56.6329 48.4324 59.0749 47.0041 61.1944C45.6218 63.2678 43.6175 64.8805 40.9912 66.0324C38.4109 67.1382 35.3929 67.6911 31.9372 67.6911ZM84.3105 52.9699H60.2589C60.9961 57.8539 63.8298 60.2959 68.7599 60.2959C70.7872 60.2959 72.5381 59.9504 74.0125 59.2592C75.5331 58.5681 77.0075 57.4162 78.4358 55.8035L83.2047 60.3651C81.8685 62.5767 79.8412 64.3506 77.1227 65.6868C74.4503 67.023 71.5014 67.6911 68.2761 67.6911C62.8852 67.6911 58.6923 66.1246 55.6973 62.9914C52.7024 59.8121 51.2049 55.4349 51.2049 49.8597C51.2049 44.2385 52.7024 39.8152 55.6973 36.5898C58.7384 33.3645 62.9082 31.7519 68.207 31.7519C73.2753 31.7519 77.2148 33.3415 80.0255 36.5207C82.8822 39.7 84.3105 44.1233 84.3105 49.7906V52.9699ZM75.6713 46.5423C75.6713 44.1924 74.9801 42.3493 73.5979 41.0131C72.2617 39.6309 70.3956 38.9397 67.9996 38.9397C65.8341 38.9397 64.0832 39.6539 62.747 41.0822C61.4108 42.4645 60.5584 44.4228 60.1897 46.9569H75.6713V46.5423ZM87.6275 41.566C87.6275 37.3731 87.5353 34.3321 87.351 32.443H95.6447C95.8751 34.3782 95.9903 36.3825 95.9903 38.4559H96.1976C97.027 36.4286 98.4784 34.8159 100.552 33.6179C102.671 32.3739 105.021 31.7519 107.601 31.7519C111.564 31.7519 114.559 33.0881 116.586 35.7605C118.614 38.4329 119.627 42.3724 119.627 47.579V67H110.85V47.5098C110.85 44.5149 110.366 42.3263 109.398 40.944C108.431 39.5617 106.887 38.8706 104.768 38.8706C102.326 38.8706 100.321 39.746 98.7548 41.4969C97.2343 43.2017 96.4741 45.4134 96.4741 48.1319V67H87.6275V41.566ZM139.634 67.6911C136.086 67.6911 133.322 66.7235 131.34 64.7884C129.359 62.8532 128.369 60.1347 128.369 56.6329V39.0088H122.079V32.443H128.369V23.5273L136.939 21.0392H137.215V32.443H147.237V39.0088H137.215V55.3197C137.215 57.301 137.676 58.7524 138.597 59.6739C139.519 60.5954 140.924 61.0562 142.813 61.0562C144.61 61.0562 146.292 60.7797 147.859 60.2268L148.273 66.2397C146.2 67.2073 143.32 67.6911 139.634 67.6911ZM183.516 52.9699H159.464C160.202 57.8539 163.035 60.2959 167.965 60.2959C169.993 60.2959 171.744 59.9504 173.218 59.2592C174.739 58.5681 176.213 57.4162 177.641 55.8035L182.41 60.3651C181.074 62.5767 179.047 64.3506 176.328 65.6868C173.656 67.023 170.707 67.6911 167.482 67.6911C162.091 67.6911 157.898 66.1246 154.903 62.9914C151.908 59.8121 150.411 55.4349 150.411 49.8597C150.411 44.2385 151.908 39.8152 154.903 36.5898C157.944 33.3645 162.114 31.7519 167.413 31.7519C172.481 31.7519 176.42 33.3415 179.231 36.5207C182.088 39.7 183.516 44.1233 183.516 49.7906V52.9699ZM174.877 46.5423C174.877 44.1924 174.186 42.3493 172.803 41.0131C171.467 39.6309 169.601 38.9397 167.205 38.9397C165.04 38.9397 163.289 39.6539 161.953 41.0822C160.616 42.4645 159.764 44.4228 159.395 46.9569H174.877V46.5423ZM186.833 41.566C186.833 37.3731 186.741 34.3321 186.557 32.443H194.85C195.081 34.3782 195.196 36.3825 195.196 38.4559H195.403C196.233 36.4286 197.684 34.8159 199.757 33.6179C201.877 32.3739 204.227 31.7519 206.807 31.7519C210.77 31.7519 213.764 33.0881 215.792 35.7605C217.819 38.4329 218.833 42.3724 218.833 47.579V67H210.055V47.5098C210.055 44.5149 209.572 42.3263 208.604 40.944C207.636 39.5617 206.093 38.8706 203.973 38.8706C201.531 38.8706 199.527 39.746 197.96 41.4969C196.44 43.2017 195.68 45.4134 195.68 48.1319V67H186.833V41.566ZM239.531 67.6911C234.186 67.6911 229.97 66.1015 226.883 62.9223C223.842 59.697 222.321 55.2967 222.321 49.7215C222.321 44.1002 223.842 39.7 226.883 36.5207C229.97 33.3415 234.186 31.7519 239.531 31.7519C242.756 31.7519 245.567 32.3508 247.963 33.5488C250.359 34.7468 252.202 36.4516 253.492 38.6633L248.17 43.2939C247.295 41.7734 246.12 40.5984 244.645 39.7691C243.217 38.9397 241.65 38.525 239.946 38.525C237.181 38.525 235.015 39.5157 233.449 41.4969C231.882 43.4782 231.099 46.2197 231.099 49.7215C231.099 53.2233 231.882 55.9648 233.449 57.9461C235.015 59.9273 237.181 60.918 239.946 60.918C241.65 60.918 243.217 60.5033 244.645 59.6739C246.074 58.7985 247.249 57.6235 248.17 56.1491L253.492 60.7797C252.202 62.9914 250.359 64.6962 247.963 65.8942C245.567 67.0922 242.756 67.6911 239.531 67.6911ZM261.799 28.4344C260.094 28.4344 258.734 27.9736 257.721 27.0521C256.707 26.0845 256.2 24.8174 256.2 23.2508C256.2 21.6842 256.707 20.4402 257.721 19.5187C258.734 18.5511 260.094 18.0673 261.799 18.0673C263.503 18.0673 264.863 18.5511 265.876 19.5187C266.936 20.4402 267.466 21.6842 267.466 23.2508C267.466 24.8174 266.959 26.0845 265.945 27.0521C264.932 27.9736 263.549 28.4344 261.799 28.4344ZM257.444 32.443H266.222V67H257.444V32.443ZM272.472 41.566C272.472 37.3731 272.38 34.3321 272.196 32.443H280.49C280.72 34.3782 280.835 36.3825 280.835 38.4559H281.042C281.872 36.4286 283.323 34.8159 285.397 33.6179C287.516 32.3739 289.866 31.7519 292.446 31.7519C296.409 31.7519 299.404 33.0881 301.431 35.7605C303.458 38.4329 304.472 42.3724 304.472 47.579V67H295.695V47.5098C295.695 44.5149 295.211 42.3263 294.243 40.944C293.276 39.5617 291.732 38.8706 289.613 38.8706C287.171 38.8706 285.166 39.746 283.6 41.4969C282.079 43.2017 281.319 45.4134 281.319 48.1319V67H272.472V41.566ZM341.066 32.443V65.6177C341.066 71.4694 339.615 75.8696 336.712 78.8185C333.809 81.8134 329.501 83.3109 323.788 83.3109C321.115 83.3109 318.581 82.9884 316.185 82.3433C313.835 81.6982 311.739 80.7767 309.896 79.5787L312.868 73.5658C314.527 74.3952 316.277 75.0403 318.121 75.501C319.964 76.0079 321.714 76.2613 323.373 76.2613C326.506 76.2613 328.833 75.2706 330.354 73.2894C331.874 71.3542 332.634 68.4053 332.634 64.4428V63.337C331.713 64.581 330.446 65.5486 328.833 66.2397C327.221 66.8848 325.308 67.2073 323.097 67.2073C318.305 67.2073 314.573 65.6408 311.9 62.5076C309.274 59.3744 307.961 54.9511 307.961 49.2377C307.961 43.7086 309.228 39.4235 311.762 36.3825C314.296 33.2954 317.867 31.7519 322.475 31.7519C327.267 31.7519 330.745 33.4336 332.911 36.7972H333.049L333.74 32.443H341.066ZM332.289 47.579C332.289 44.584 331.644 42.3033 330.354 40.7367C329.064 39.124 327.198 38.3177 324.755 38.3177C322.175 38.3177 320.194 39.2853 318.812 41.2205C317.429 43.1096 316.738 45.8511 316.738 49.445C316.738 53.039 317.406 55.7575 318.743 57.6005C320.125 59.4435 322.129 60.3651 324.755 60.3651C327.198 60.3651 329.064 59.6509 330.354 58.2225C331.644 56.7481 332.289 54.6747 332.289 52.0023V47.579Z" fill="white"/>
<path d="M360.119 44.7319H365.597C370.093 44.7319 372.341 46.2917 372.341 49.4113C372.341 50.4389 372.112 51.3014 371.653 51.9987C371.194 52.6777 370.478 53.219 369.506 53.6227V53.7053C370.772 54.0907 371.69 54.6595 372.258 55.4119C372.827 56.1643 373.112 57.1736 373.112 58.4398C373.112 62.1466 370.974 64 366.698 64H360.119V44.7319ZM366.12 52.7144C367.166 52.7144 367.964 52.4575 368.515 51.9436C369.065 51.4115 369.341 50.6591 369.341 49.6865C369.341 48.7873 369.038 48.1359 368.432 47.7322C367.845 47.3101 366.9 47.0991 365.597 47.0991H363.12V52.7144H366.12ZM366.671 61.6328C367.808 61.6328 368.671 61.3575 369.258 60.807C369.845 60.2381 370.139 59.4123 370.139 58.3297C370.139 57.1552 369.772 56.3019 369.038 55.7697C368.322 55.2192 367.175 54.944 365.597 54.944H363.12V61.6328H366.671ZM375.114 44.7319H387.087V47.1817H378.114V52.6593H386.124V55.1091H378.114V61.5502H387.087V64H375.114V44.7319ZM393.298 47.0165H387.407V44.7319H402.161V47.0165H396.298V64H393.298V47.0165ZM411.624 60.1739H404.439L403.256 64H400.063L406.669 44.7319H409.394L416 64H412.807L411.624 60.1739ZM410.853 57.7241L408.045 48.613L405.21 57.7241H410.853Z" fill="white" fill-opacity="0.5"/>
</svg>
