<svg width="404" height="84" viewBox="0 0 404 84" fill="none" xmlns="http://www.w3.org/2000/svg">
<path d="M18.9372 67.6911C15.2972 67.6911 12.0028 66.9539 9.05394 65.4795C6.15115 64.0051 3.77823 61.8856 1.93519 59.121L7.67166 53.5919C9.19216 55.3888 11.0352 56.8633 13.2008 58.0152C15.3663 59.1671 17.3937 59.743 19.2828 59.743C21.4023 59.743 23.1071 59.2592 24.3972 58.2916C25.6874 57.324 26.3324 56.0569 26.3324 54.4904C26.3324 53.3385 26.1251 52.3939 25.7104 51.6567C25.2957 50.9195 24.5124 50.1823 23.3605 49.445C22.2086 48.6617 20.3195 47.625 17.6932 46.3349C14.2375 44.6301 11.519 43.0405 9.53773 41.566C7.55647 40.0916 6.08203 38.502 5.11444 36.7972C4.19292 35.0463 3.73216 33.0189 3.73216 30.7151C3.73216 28.181 4.40026 25.9463 5.73646 24.0111C7.07267 22.0759 8.96178 20.5784 11.4038 19.5187C13.8458 18.4589 16.6565 17.9291 19.8357 17.9291C23.3375 17.9291 26.4246 18.5972 29.097 19.9334C31.8155 21.2696 33.7968 23.1126 35.0408 25.4625L28.7514 30.1622C26.4476 27.3055 23.614 25.8772 20.2504 25.8772C18.1309 25.8772 16.4952 26.2918 15.3433 27.1212C14.1914 27.9506 13.6155 29.1255 13.6155 30.646C13.6155 31.5676 13.8919 32.3969 14.4448 33.1341C15.0438 33.8714 16.1036 34.6777 17.6241 35.5531C19.1446 36.4286 21.4253 37.5805 24.4664 39.0088C27.4152 40.3911 29.719 41.7734 31.3778 43.1557C33.0826 44.5379 34.3036 46.0815 35.0408 47.7863C35.778 49.4911 36.1466 51.5185 36.1466 53.8683C36.1466 56.6329 35.4324 59.0749 34.0041 61.1944C32.6218 63.2678 30.6175 64.8805 27.9912 66.0324C25.4109 67.1382 22.3929 67.6911 18.9372 67.6911ZM71.3105 52.9699H47.2589C47.9961 57.8539 50.8298 60.2959 55.7599 60.2959C57.7872 60.2959 59.5381 59.9504 61.0125 59.2592C62.5331 58.5681 64.0075 57.4162 65.4358 55.8035L70.2047 60.3651C68.8685 62.5767 66.8412 64.3506 64.1227 65.6868C61.4503 67.023 58.5014 67.6911 55.2761 67.6911C49.8852 67.6911 45.6923 66.1246 42.6973 62.9914C39.7024 59.8121 38.2049 55.4349 38.2049 49.8597C38.2049 44.2385 39.7024 39.8152 42.6973 36.5898C45.7384 33.3645 49.9082 31.7519 55.207 31.7519C60.2753 31.7519 64.2148 33.3415 67.0255 36.5207C69.8822 39.7 71.3105 44.1233 71.3105 49.7906V52.9699ZM62.6713 46.5423C62.6713 44.1924 61.9801 42.3493 60.5979 41.0131C59.2617 39.6309 57.3956 38.9397 54.9996 38.9397C52.8341 38.9397 51.0832 39.6539 49.747 41.0822C48.4108 42.4645 47.5584 44.4228 47.1897 46.9569H62.6713V46.5423ZM74.6275 41.566C74.6275 37.3731 74.5353 34.3321 74.351 32.443H82.6447C82.8751 34.3782 82.9903 36.3825 82.9903 38.4559H83.1976C84.027 36.4286 85.4784 34.8159 87.5518 33.6179C89.6713 32.3739 92.0212 31.7519 94.6014 31.7519C98.564 31.7519 101.559 33.0881 103.586 35.7605C105.614 38.4329 106.627 42.3724 106.627 47.579V67H97.8498V47.5098C97.8498 44.5149 97.366 42.3263 96.3984 40.944C95.4308 39.5617 93.8872 38.8706 91.7677 38.8706C89.3257 38.8706 87.3214 39.746 85.7548 41.4969C84.2343 43.2017 83.4741 45.4134 83.4741 48.1319V67H74.6275V41.566ZM126.634 67.6911C123.086 67.6911 120.322 66.7235 118.34 64.7884C116.359 62.8532 115.369 60.1347 115.369 56.6329V39.0088H109.079V32.443H115.369V23.5273L123.939 21.0392H124.215V32.443H134.237V39.0088H124.215V55.3197C124.215 57.301 124.676 58.7524 125.597 59.6739C126.519 60.5954 127.924 61.0562 129.813 61.0562C131.61 61.0562 133.292 60.7797 134.859 60.2268L135.273 66.2397C133.2 67.2073 130.32 67.6911 126.634 67.6911ZM170.516 52.9699H146.464C147.202 57.8539 150.035 60.2959 154.965 60.2959C156.993 60.2959 158.744 59.9504 160.218 59.2592C161.739 58.5681 163.213 57.4162 164.641 55.8035L169.41 60.3651C168.074 62.5767 166.047 64.3506 163.328 65.6868C160.656 67.023 157.707 67.6911 154.482 67.6911C149.091 67.6911 144.898 66.1246 141.903 62.9914C138.908 59.8121 137.411 55.4349 137.411 49.8597C137.411 44.2385 138.908 39.8152 141.903 36.5898C144.944 33.3645 149.114 31.7519 154.413 31.7519C159.481 31.7519 163.42 33.3415 166.231 36.5207C169.088 39.7 170.516 44.1233 170.516 49.7906V52.9699ZM161.877 46.5423C161.877 44.1924 161.186 42.3493 159.803 41.0131C158.467 39.6309 156.601 38.9397 154.205 38.9397C152.04 38.9397 150.289 39.6539 148.953 41.0822C147.616 42.4645 146.764 44.4228 146.395 46.9569H161.877V46.5423ZM173.833 41.566C173.833 37.3731 173.741 34.3321 173.557 32.443H181.85C182.081 34.3782 182.196 36.3825 182.196 38.4559H182.403C183.233 36.4286 184.684 34.8159 186.757 33.6179C188.877 32.3739 191.227 31.7519 193.807 31.7519C197.77 31.7519 200.764 33.0881 202.792 35.7605C204.819 38.4329 205.833 42.3724 205.833 47.579V67H197.055V47.5098C197.055 44.5149 196.572 42.3263 195.604 40.944C194.636 39.5617 193.093 38.8706 190.973 38.8706C188.531 38.8706 186.527 39.746 184.96 41.4969C183.44 43.2017 182.68 45.4134 182.68 48.1319V67H173.833V41.566ZM226.531 67.6911C221.186 67.6911 216.97 66.1015 213.883 62.9223C210.842 59.697 209.321 55.2967 209.321 49.7215C209.321 44.1002 210.842 39.7 213.883 36.5207C216.97 33.3415 221.186 31.7519 226.531 31.7519C229.756 31.7519 232.567 32.3508 234.963 33.5488C237.359 34.7468 239.202 36.4516 240.492 38.6633L235.17 43.2939C234.295 41.7734 233.12 40.5984 231.645 39.7691C230.217 38.9397 228.65 38.525 226.946 38.525C224.181 38.525 222.015 39.5157 220.449 41.4969C218.882 43.4782 218.099 46.2197 218.099 49.7215C218.099 53.2233 218.882 55.9648 220.449 57.9461C222.015 59.9273 224.181 60.918 226.946 60.918C228.65 60.918 230.217 60.5033 231.645 59.6739C233.074 58.7985 234.249 57.6235 235.17 56.1491L240.492 60.7797C239.202 62.9914 237.359 64.6962 234.963 65.8942C232.567 67.0922 229.756 67.6911 226.531 67.6911ZM248.799 28.4344C247.094 28.4344 245.734 27.9736 244.721 27.0521C243.707 26.0845 243.2 24.8174 243.2 23.2508C243.2 21.6842 243.707 20.4402 244.721 19.5187C245.734 18.5511 247.094 18.0673 248.799 18.0673C250.503 18.0673 251.863 18.5511 252.876 19.5187C253.936 20.4402 254.466 21.6842 254.466 23.2508C254.466 24.8174 253.959 26.0845 252.945 27.0521C251.932 27.9736 250.549 28.4344 248.799 28.4344ZM244.444 32.443H253.222V67H244.444V32.443ZM259.472 41.566C259.472 37.3731 259.38 34.3321 259.196 32.443H267.49C267.72 34.3782 267.835 36.3825 267.835 38.4559H268.042C268.872 36.4286 270.323 34.8159 272.397 33.6179C274.516 32.3739 276.866 31.7519 279.446 31.7519C283.409 31.7519 286.404 33.0881 288.431 35.7605C290.458 38.4329 291.472 42.3724 291.472 47.579V67H282.695V47.5098C282.695 44.5149 282.211 42.3263 281.243 40.944C280.276 39.5617 278.732 38.8706 276.613 38.8706C274.171 38.8706 272.166 39.746 270.6 41.4969C269.079 43.2017 268.319 45.4134 268.319 48.1319V67H259.472V41.566ZM328.066 32.443V65.6177C328.066 71.4694 326.615 75.8696 323.712 78.8185C320.809 81.8134 316.501 83.3109 310.788 83.3109C308.115 83.3109 305.581 82.9884 303.185 82.3433C300.835 81.6982 298.739 80.7767 296.896 79.5787L299.868 73.5658C301.527 74.3952 303.277 75.0403 305.121 75.501C306.964 76.0079 308.714 76.2613 310.373 76.2613C313.506 76.2613 315.833 75.2706 317.354 73.2894C318.874 71.3542 319.634 68.4053 319.634 64.4428V63.337C318.713 64.581 317.446 65.5486 315.833 66.2397C314.221 66.8848 312.308 67.2073 310.097 67.2073C305.305 67.2073 301.573 65.6408 298.9 62.5076C296.274 59.3744 294.961 54.9511 294.961 49.2377C294.961 43.7086 296.228 39.4235 298.762 36.3825C301.296 33.2954 304.867 31.7519 309.475 31.7519C314.267 31.7519 317.745 33.4336 319.911 36.7972H320.049L320.74 32.443H328.066ZM319.289 47.579C319.289 44.584 318.644 42.3033 317.354 40.7367C316.064 39.124 314.198 38.3177 311.755 38.3177C309.175 38.3177 307.194 39.2853 305.812 41.2205C304.429 43.1096 303.738 45.8511 303.738 49.445C303.738 53.039 304.406 55.7575 305.743 57.6005C307.125 59.4435 309.129 60.3651 311.755 60.3651C314.198 60.3651 316.064 59.6509 317.354 58.2225C318.644 56.7481 319.289 54.6747 319.289 52.0023V47.579Z" fill="white"/>
<path d="M347.119 44.7319H352.597C357.093 44.7319 359.341 46.2917 359.341 49.4113C359.341 50.4389 359.112 51.3014 358.653 51.9987C358.194 52.6777 357.478 53.219 356.506 53.6227V53.7053C357.772 54.0907 358.69 54.6595 359.258 55.4119C359.827 56.1643 360.112 57.1736 360.112 58.4398C360.112 62.1466 357.974 64 353.698 64H347.119V44.7319ZM353.12 52.7144C354.166 52.7144 354.964 52.4575 355.515 51.9436C356.065 51.4115 356.341 50.6591 356.341 49.6865C356.341 48.7873 356.038 48.1359 355.432 47.7322C354.845 47.3101 353.9 47.0991 352.597 47.0991H350.12V52.7144H353.12ZM353.671 61.6328C354.808 61.6328 355.671 61.3575 356.258 60.807C356.845 60.2381 357.139 59.4123 357.139 58.3297C357.139 57.1552 356.772 56.3019 356.038 55.7697C355.322 55.2192 354.175 54.944 352.597 54.944H350.12V61.6328H353.671ZM362.114 44.7319H374.087V47.1817H365.114V52.6593H373.124V55.1091H365.114V61.5502H374.087V64H362.114V44.7319ZM380.298 47.0165H374.407V44.7319H389.161V47.0165H383.298V64H380.298V47.0165ZM398.624 60.1739H391.439L390.256 64H387.063L393.669 44.7319H396.394L403 64H399.807L398.624 60.1739ZM397.853 57.7241L395.045 48.613L392.21 57.7241H397.853Z" fill="white" fill-opacity="0.5"/>
</svg>
